<svg width="571" height="756" viewBox="0 0 571 756" fill="none" xmlns="http://www.w3.org/2000/svg">
<path fill-rule="evenodd" clip-rule="evenodd" d="M451.026 724.464C452.515 723.561 453.996 722.63 455.467 721.673C457.004 720.672 458.523 719.648 460.025 718.599C461.515 717.701 462.995 716.773 464.465 715.817C466.004 714.815 467.524 713.787 469.024 712.732C470.515 711.84 471.995 710.917 473.464 709.961C475.005 708.958 476.524 707.926 478.023 706.864C479.515 705.979 480.995 705.06 482.462 704.105C484.005 703.101 485.525 702.064 487.022 700.994C488.515 700.117 489.995 699.203 491.461 698.249C493.006 697.243 494.526 696.201 496.02 695.122C497.515 694.255 498.995 693.345 500.459 692.393C502.007 691.385 503.526 690.337 505.018 689.247C506.516 688.391 507.996 687.488 509.457 686.537C511.008 685.527 512.528 684.471 514.016 683.37C515.516 682.527 516.996 681.63 518.456 680.681C597.97 628.934 585.872 437.516 491.433 253.138C396.994 68.7595 255.977 -38.7595 176.463 12.9875C175.003 13.9373 173.575 14.9341 172.177 15.9771C170.586 16.879 169.015 17.8343 167.464 18.8435C166.002 19.7948 164.568 20.7877 163.162 21.8215C161.579 22.733 160.014 23.6922 158.466 24.6995C157.002 25.6521 155.563 26.6418 154.15 27.6679C152.573 28.5875 151.013 29.5499 149.467 30.5555C148.002 31.5093 146.559 32.4964 145.139 33.516C143.569 34.4424 142.012 35.4075 140.469 36.4115C139.002 37.3664 137.555 38.3512 136.13 39.3654C134.564 40.2976 133.011 41.2649 131.471 42.2675C130.002 43.2234 128.552 44.2064 127.122 45.2159C125.561 46.153 124.011 47.1221 122.472 48.1235C121.002 49.0803 119.55 50.0617 118.115 51.0673C116.558 52.0085 115.011 52.9793 113.474 53.9795C112.003 54.9371 110.547 55.9172 109.109 56.9193C107.555 57.8643 106.011 58.8363 104.476 59.8355C-14.7962 137.456 -34.9273 349.848 59.5115 534.226C153.95 718.605 327.197 805.149 446.469 727.529C448.004 726.529 449.523 725.508 451.026 724.464ZM368.164 646.492C311.595 603.36 253.005 530.786 205.953 438.924C158.902 347.062 132.437 253.581 127.584 176.794C123.958 119.415 132.404 71.996 152.771 41.2388C200.901 27.5745 254.264 35.274 306.112 61.1741C375.529 95.8511 442.015 163.081 488.965 254.744C535.915 346.408 554.325 444.924 546.259 530.026C540.234 593.589 519.468 649.53 484.905 689.682C451.09 694.186 410.434 678.721 368.164 646.492ZM479.5 695.71C480.251 694.906 480.996 694.094 481.735 693.276C400.365 700.812 284.701 599.093 203.485 440.53C122.269 281.968 101.95 118.199 148.425 42.5353C147.427 42.8477 146.431 43.1694 145.438 43.5004C120.839 75.2725 109.685 125.745 112.227 186.868C115.463 264.688 140.917 358.798 187.957 450.636C234.996 542.474 294.574 614.376 352.745 656.445C398.435 689.489 442.79 703.837 479.5 695.71ZM474.212 701.157C474.687 700.686 475.16 700.213 475.631 699.737C389.953 714.424 268.276 613.873 185.489 452.242C102.701 290.612 86.2859 121.557 140.409 45.2643C139.808 45.4857 139.208 45.7107 138.609 45.9391C109.58 78.6741 95.5374 132.171 96.8683 196.941C98.4886 275.796 122.933 370.534 169.96 462.348C216.987 554.162 277.553 625.393 337.326 666.402C386.425 700.087 434.547 713.127 474.212 701.157ZM469.045 706.088C469.159 705.983 469.272 705.878 469.386 705.773C379.303 727.451 251.685 628.33 167.492 463.954C83.2983 299.578 70.9527 125.44 132.649 48.3419C132.512 48.4004 132.374 48.4591 132.237 48.518C98.6033 82.1805 81.5036 138.682 81.5079 207.012C81.5128 286.903 104.948 382.27 151.963 474.06C198.978 565.85 260.531 636.411 321.909 676.361C374.405 710.53 426.365 722.089 469.045 706.088ZM545.199 559.595C537.932 601.537 523.816 639.421 503.105 670.571C524.174 640.204 538.304 602.246 545.199 559.595ZM76.4621 86.4758C35.6342 127.077 11.2936 187.624 4.68592 257.338C-3.38033 342.44 15.0295 440.957 61.9796 532.62C108.93 624.284 175.415 691.513 244.832 726.19C301.698 754.597 360.387 761.11 411.994 741.555C301.48 773.194 160.57 684.681 77.5082 522.514C-5.55381 360.347 -3.10354 178.538 76.4621 86.4758ZM282.865 47.4244C246.649 32.8293 210.421 27.6436 176.555 33.0277C210.843 28.385 247.007 33.5472 282.865 47.4244ZM95.5049 510.802C178.88 673.58 317.399 764.191 423.943 734.228C373.948 753.269 316.398 745.808 260.246 716.22C192.439 680.491 126.94 612.597 79.9764 520.908C33.013 429.219 13.6003 331.333 20.0526 247.277C25.3959 177.668 48.4389 117.758 88.0661 78.4746C11.7728 167.499 12.1298 348.024 95.5049 510.802ZM549.045 553.3C542.661 598.221 528.47 638.408 506.727 670.543C528.902 639.383 543.115 599.104 549.045 553.3ZM178.387 29.5055C213.415 23.4387 251.467 29.7042 289.622 46.8165C251.918 30.5882 213.948 24.3477 178.387 29.5055ZM552.613 547.567C547.279 595.081 533.264 637.187 510.799 669.913C533.774 638.374 547.821 596.159 552.613 547.567ZM99.5811 70.5444C61.1848 108.461 39.4694 167.708 35.4182 237.214C30.5798 320.225 50.9965 417.481 97.973 509.196C144.95 600.911 209.463 669.469 275.66 706.252C331.087 737.05 387.464 745.476 435.794 726.952C333.271 755.216 197.189 662.478 113.502 499.09C29.8143 335.703 26.6044 156.493 99.5811 70.5444ZM295.813 46.2009C256.083 26.5826 216.625 19.1875 180.905 25.8462C217.282 20.2781 256.64 27.6496 295.813 46.2009ZM131.498 487.378C215.496 651.373 349.092 746.266 447.542 719.729C400.934 737.73 345.766 728.324 291.076 696.286C226.486 658.449 162.959 589.224 115.97 497.484C68.9803 405.744 47.5585 309.118 50.7828 227.149C53.5128 157.742 73.8707 99.1852 111.005 62.6873C41.3913 145.524 47.5003 323.384 131.498 487.378ZM555.956 542.298C551.806 592.084 538.182 635.786 515.265 668.775C538.773 637.206 552.443 593.38 555.956 542.298ZM184.013 22.0548C220.022 14.8906 260.529 23.4596 301.532 45.5713C261.206 24.7293 220.818 16.1784 184.013 22.0548ZM559.115 537.427C556.256 589.206 543.212 634.221 520.088 667.195C543.89 635.903 556.997 590.749 559.115 537.427ZM122.337 54.9047C86.4953 89.9296 67.5248 147.767 66.146 217.081C64.5361 298.01 86.9642 394.007 133.967 485.772C180.969 577.537 243.509 647.429 306.492 686.322C360.435 719.634 414.357 730.034 459.188 712.558C364.86 737.34 233.802 640.263 149.495 475.666C65.1884 311.069 56.1335 134.594 122.337 54.9047ZM306.854 44.9237C264.827 20.3291 223.582 10.5474 187.639 18.137C224.535 12.0506 265.643 21.8252 306.854 44.9237ZM562.118 532.901C560.639 586.426 548.345 632.507 525.236 665.223C549.117 634.479 561.498 588.25 562.118 532.901ZM191.728 14.0976C227.289 6.15698 268.997 17.1854 311.834 44.2548C269.97 18.9357 228.419 7.89647 191.728 14.0976ZM564.993 528.677C564.966 583.73 553.575 630.652 530.684 662.9C554.447 632.95 565.956 585.874 564.993 528.677ZM316.515 43.5604C273.052 14.0215 231.129 1.71805 196.237 9.94081C232.458 3.71861 274.204 16.0596 316.515 43.5604ZM567.758 524.725C569.244 581.105 558.895 628.665 536.411 660.258C559.877 631.329 570.383 583.614 567.758 524.725ZM201.131 5.67089C235.09 -2.7713 277.003 10.83 320.934 42.8374C278.361 13.1964 236.646 -0.480284 201.131 5.67089Z" fill="url(#paint0_radial_213_1451)"/>
<defs>
<radialGradient id="paint0_radial_213_1451" cx="0" cy="0" r="1" gradientUnits="userSpaceOnUse" gradientTransform="translate(210.5 378) rotate(-38.4455) scale(563.713 425.767)">
<stop stop-color="#8E6CD7"/>
<stop offset="1" stop-color="#CFC0F0" stop-opacity="0"/>
</radialGradient>
</defs>
</svg>
