<svg width="21" height="20" viewBox="0 0 21 20" fill="none" xmlns="http://www.w3.org/2000/svg">
<path fill-rule="evenodd" clip-rule="evenodd" d="M10.2173 18.3332H6.06253C3.9843 18.3332 2.29297 16.6757 2.29297 14.6373V5.36317C2.29297 3.32484 3.9843 1.6665 6.06253 1.6665H10.2079C12.2879 1.6665 13.98 3.32484 13.98 5.36317V6.13984C13.98 6.48484 13.6943 6.76484 13.3423 6.76484C12.9902 6.76484 12.7045 6.48484 12.7045 6.13984V5.36317C12.7045 4.01317 11.5846 2.9165 10.2079 2.9165H6.06253C4.68753 2.9165 3.56848 4.01317 3.56848 5.36317V14.6373C3.56848 15.9865 4.68753 17.0832 6.06253 17.0832H10.2173C11.588 17.0832 12.7045 15.9898 12.7045 14.6465V13.8607C12.7045 13.5157 12.9902 13.2357 13.3423 13.2357C13.6943 13.2357 13.98 13.5157 13.98 13.8607V14.6465C13.98 16.6798 12.2913 18.3332 10.2173 18.3332Z" fill="#F6F3FF"/>
<mask id="mask0_261_3679" style="mask-type:alpha" maskUnits="userSpaceOnUse" x="8" y="9" width="12" height="2">
<path fill-rule="evenodd" clip-rule="evenodd" d="M8.24219 9.375H19.7566V10.625H8.24219V9.375Z" fill="white"/>
</mask>
<g mask="url(#mask0_261_3679)">
<path fill-rule="evenodd" clip-rule="evenodd" d="M19.1189 10.625H8.87994C8.5279 10.625 8.24219 10.345 8.24219 10C8.24219 9.655 8.5279 9.375 8.87994 9.375H19.1189C19.4709 9.375 19.7566 9.655 19.7566 10C19.7566 10.345 19.4709 10.625 19.1189 10.625Z" fill="#F6F3FF"/>
</g>
<mask id="mask1_261_3679" style="mask-type:alpha" maskUnits="userSpaceOnUse" x="15" y="6" width="5" height="8">
<path fill-rule="evenodd" clip-rule="evenodd" d="M15.9912 6.9458H19.756V13.0548H15.9912V6.9458Z" fill="white"/>
</mask>
<g mask="url(#mask1_261_3679)">
<path fill-rule="evenodd" clip-rule="evenodd" d="M16.6288 13.0548C16.4655 13.0548 16.3014 12.9939 16.1772 12.8706C15.9289 12.6256 15.9298 12.2306 16.1789 11.9873L18.2146 9.99976L16.1789 8.01309C15.9298 7.76976 15.9281 7.37476 16.1772 7.12976C16.4255 6.88476 16.8286 6.88476 17.0786 7.12809L19.5684 9.55726C19.6891 9.67393 19.7563 9.83393 19.7563 9.99976C19.7563 10.1656 19.6891 10.3256 19.5684 10.4423L17.0786 12.8723C16.9544 12.9939 16.7912 13.0548 16.6288 13.0548Z" fill="#F6F3FF"/>
</g>
</svg>
