<svg width="21" height="20" viewBox="0 0 21 20" fill="none" xmlns="http://www.w3.org/2000/svg">
<mask id="mask0_261_3678" style="mask-type:alpha" maskUnits="userSpaceOnUse" x="2" y="1" width="16" height="18">
<path fill-rule="evenodd" clip-rule="evenodd" d="M2.55176 1.67627H17.0524V18.2209H2.55176V1.67627Z" fill="white"/>
</mask>
<g mask="url(#mask0_261_3678)">
<path fill-rule="evenodd" clip-rule="evenodd" d="M6.44045 2.92627C5.03144 2.92627 3.86137 4.0446 3.82821 5.42377V14.3363C3.79674 15.7638 4.9447 16.9396 6.38688 16.9713H13.244C14.6632 16.9138 15.7874 15.7579 15.7772 14.3413V6.9496L11.8359 2.92627H6.45066H6.44045ZM6.45066 18.2213H6.35797C4.21341 18.1738 2.50593 16.4254 2.5527 14.3229V5.40877C2.60202 3.34127 4.34436 1.67627 6.43875 1.67627H6.45321H12.108C12.2814 1.67627 12.4473 1.74544 12.568 1.86794L16.875 6.26544C16.9889 6.38127 17.0527 6.5371 17.0527 6.69794V14.3363C17.068 16.4271 15.4064 18.1354 13.2695 18.2204L6.45066 18.2213Z" fill="#F6F3FF"/>
</g>
<path fill-rule="evenodd" clip-rule="evenodd" d="M16.4112 7.48699H14.0685C12.5124 7.48283 11.2471 6.23949 11.2471 4.71616V2.29199C11.2471 1.94699 11.5328 1.66699 11.8848 1.66699C12.2369 1.66699 12.5226 1.94699 12.5226 2.29199V4.71616C12.5226 5.55282 13.2173 6.23449 14.0702 6.23699H16.4112C16.7632 6.23699 17.0489 6.51699 17.0489 6.86199C17.0489 7.20699 16.7632 7.48699 16.4112 7.48699Z" fill="#F6F3FF"/>
<path fill-rule="evenodd" clip-rule="evenodd" d="M11.7257 13.4238H7.13385C6.78181 13.4238 6.49609 13.1438 6.49609 12.7988C6.49609 12.4538 6.78181 12.1738 7.13385 12.1738H11.7257C12.0777 12.1738 12.3634 12.4538 12.3634 12.7988C12.3634 13.1438 12.0777 13.4238 11.7257 13.4238Z" fill="#F6F3FF"/>
<path fill-rule="evenodd" clip-rule="evenodd" d="M9.98661 10.2969H7.13287C6.78083 10.2969 6.49512 10.0169 6.49512 9.67188C6.49512 9.32688 6.78083 9.04688 7.13287 9.04688H9.98661C10.3387 9.04688 10.6244 9.32688 10.6244 9.67188C10.6244 10.0169 10.3387 10.2969 9.98661 10.2969Z" fill="#F6F3FF"/>
</svg>
