<svg width="40" height="40" viewBox="0 0 40 40" fill="none" xmlns="http://www.w3.org/2000/svg">
<rect width="40" height="40" fill="#E5E5E5"/>
<rect width="140" height="866" transform="translate(-615 -483)" fill="#EEEEFF"/>
<g filter="url(#filter0_f_1_1109)">
<circle cx="543" cy="380" r="404" fill="url(#paint0_radial_1_1109)" fill-opacity="0.6"/>
</g>
<path fill-rule="evenodd" clip-rule="evenodd" d="M453.026 600.464C454.515 599.561 455.996 598.63 457.467 597.673C459.004 596.672 460.523 595.648 462.025 594.599C463.515 593.701 464.995 592.773 466.465 591.817C468.004 590.815 469.524 589.787 471.024 588.732C472.515 587.84 473.995 586.917 475.464 585.961C477.005 584.958 478.524 583.926 480.023 582.864C481.515 581.979 482.995 581.06 484.462 580.105C486.005 579.101 487.525 578.064 489.022 576.994C490.515 576.117 491.995 575.203 493.461 574.249C495.006 573.243 496.526 572.201 498.02 571.122C499.515 570.255 500.995 569.345 502.459 568.393C504.007 567.385 505.526 566.337 507.018 565.247C508.516 564.391 509.996 563.488 511.457 562.537C513.008 561.527 514.528 560.471 516.016 559.37C517.516 558.527 518.996 557.63 520.456 556.681C599.97 504.934 587.872 313.516 493.433 129.138C398.994 -55.2405 257.977 -162.76 178.463 -111.013C177.003 -110.063 175.575 -109.066 174.177 -108.023C172.586 -107.121 171.015 -106.166 169.464 -105.157C168.002 -104.205 166.568 -103.212 165.162 -102.179C163.579 -101.267 162.014 -100.308 160.466 -99.3005C159.002 -98.3479 157.563 -97.3582 156.15 -96.3321C154.573 -95.4125 153.013 -94.4501 151.467 -93.4445C150.002 -92.4907 148.559 -91.5036 147.139 -90.484C145.569 -89.5576 144.012 -88.5925 142.469 -87.5885C141.002 -86.6336 139.555 -85.6488 138.13 -84.6346C136.564 -83.7024 135.011 -82.7351 133.471 -81.7325C132.002 -80.7766 130.552 -79.7936 129.122 -78.7841C127.561 -77.847 126.011 -76.8779 124.472 -75.8765C123.002 -74.9197 121.55 -73.9383 120.115 -72.9327C118.558 -71.9915 117.011 -71.0207 115.474 -70.0205C114.003 -69.0629 112.547 -68.0828 111.109 -67.0807C109.555 -66.1357 108.011 -65.1637 106.476 -64.1645C-12.7962 13.456 -32.9273 225.848 61.5115 410.226C155.95 594.605 329.197 681.149 448.469 603.529C450.004 602.529 451.523 601.508 453.026 600.464ZM370.164 522.492C313.595 479.36 255.005 406.786 207.953 314.924C160.902 223.062 134.437 129.581 129.584 52.7938C125.958 -4.58462 134.404 -52.004 154.771 -82.7612C202.901 -96.4255 256.264 -88.726 308.112 -62.8259C377.529 -28.1489 444.015 39.0807 490.965 130.744C537.915 222.408 556.325 320.924 548.259 406.026C542.234 469.589 521.468 525.53 486.905 565.682C453.09 570.186 412.434 554.721 370.164 522.492ZM481.5 571.71C482.251 570.906 482.996 570.094 483.735 569.276C402.365 576.812 286.701 475.093 205.485 316.53C124.269 157.968 103.95 -5.80077 150.425 -81.4647C149.427 -81.1523 148.431 -80.8306 147.438 -80.4996C122.839 -48.7275 111.685 1.74495 114.227 62.8685C117.463 140.688 142.917 234.798 189.957 326.636C236.996 418.474 296.574 490.376 354.745 532.445C400.435 565.489 444.79 579.837 481.5 571.71ZM476.212 577.157C476.687 576.686 477.16 576.213 477.631 575.737C391.953 590.424 270.276 489.873 187.489 328.242C104.701 166.612 88.2859 -2.44296 142.409 -78.7357C141.808 -78.5143 141.208 -78.2893 140.609 -78.0609C111.58 -45.3259 97.5374 8.17062 98.8683 72.9413C100.489 151.796 124.933 246.534 171.96 338.348C218.987 430.162 279.553 501.393 339.326 542.402C388.425 576.087 436.547 589.127 476.212 577.157ZM471.045 582.088C471.159 581.983 471.272 581.878 471.386 581.773C381.303 603.451 253.685 504.33 169.492 339.954C85.2983 175.578 72.9527 1.44022 134.649 -75.6581C134.512 -75.5996 134.374 -75.5409 134.237 -75.482C100.603 -41.8195 83.5036 14.6817 83.5079 83.0123C83.5128 162.903 106.948 258.27 153.963 350.06C200.978 441.85 262.531 512.411 323.909 552.361C376.405 586.53 428.365 598.089 471.045 582.088ZM547.199 435.595C539.932 477.537 525.816 515.421 505.105 546.571C526.174 516.204 540.304 478.246 547.199 435.595ZM78.4621 -37.5242C37.6342 3.07668 13.2936 63.6236 6.68592 133.338C-1.38033 218.44 17.0295 316.957 63.9796 408.62C110.93 500.284 177.415 567.513 246.832 602.19C303.698 630.597 362.387 637.11 413.994 617.555C303.48 649.194 162.57 560.681 79.5082 398.514C-3.55381 236.347 -1.10354 54.5379 78.4621 -37.5242ZM284.865 -76.5756C248.649 -91.1707 212.421 -96.3564 178.555 -90.9723C212.843 -95.615 249.007 -90.4528 284.865 -76.5756ZM97.5049 386.802C180.88 549.58 319.399 640.191 425.943 610.228C375.948 629.269 318.398 621.808 262.246 592.22C194.439 556.491 128.94 488.597 81.9764 396.908C35.013 305.219 15.6003 207.333 22.0526 123.277C27.3959 53.6682 50.4389 -6.24216 90.0661 -45.5254C13.7728 43.4989 14.1298 224.024 97.5049 386.802ZM551.045 429.3C544.661 474.221 530.47 514.408 508.727 546.543C530.902 515.383 545.115 475.104 551.045 429.3ZM180.387 -94.4945C215.415 -100.561 253.467 -94.2958 291.622 -77.1835C253.918 -93.4118 215.948 -99.6523 180.387 -94.4945ZM554.613 423.567C549.279 471.081 535.264 513.187 512.799 545.913C535.774 514.374 549.821 472.159 554.613 423.567ZM101.581 -53.4556C63.1848 -15.5392 41.4694 43.7082 37.4182 113.214C32.5798 196.225 52.9965 293.481 99.973 385.196C146.95 476.911 211.463 545.469 277.66 582.252C333.087 613.05 389.464 621.476 437.794 602.952C335.271 631.216 199.189 538.478 115.502 375.09C31.8143 211.703 28.6044 32.4933 101.581 -53.4556ZM297.813 -77.7991C258.083 -97.4174 218.625 -104.813 182.905 -98.1538C219.282 -103.722 258.64 -96.3504 297.813 -77.7991ZM133.498 363.378C217.496 527.373 351.092 622.266 449.542 595.729C402.934 613.73 347.766 604.324 293.076 572.286C228.486 534.449 164.959 465.224 117.97 373.484C70.9803 281.744 49.5585 185.118 52.7828 103.149C55.5128 33.742 75.8707 -24.8148 113.005 -61.3127C43.3913 21.5242 49.5003 199.384 133.498 363.378ZM557.956 418.298C553.806 468.084 540.182 511.786 517.265 544.775C540.773 513.206 554.443 469.38 557.956 418.298ZM186.013 -101.945C222.022 -109.109 262.529 -100.54 303.532 -78.4287C263.206 -99.2707 222.818 -107.822 186.013 -101.945ZM561.115 413.427C558.256 465.206 545.212 510.221 522.088 543.195C545.89 511.903 558.997 466.749 561.115 413.427ZM124.337 -69.0953C88.4953 -34.0704 69.5248 23.7671 68.146 93.0814C66.5361 174.01 88.9642 270.007 135.967 361.772C182.969 453.537 245.509 523.429 308.492 562.322C362.435 595.634 416.357 606.034 461.188 588.558C366.86 613.34 235.802 516.263 151.495 351.666C67.1884 187.069 58.1335 10.5944 124.337 -69.0953ZM308.854 -79.0763C266.827 -103.671 225.582 -113.453 189.639 -105.863C226.535 -111.949 267.643 -102.175 308.854 -79.0763ZM564.118 408.901C562.639 462.426 550.345 508.507 527.236 541.223C551.117 510.479 563.498 464.25 564.118 408.901ZM193.728 -109.902C229.289 -117.843 270.997 -106.815 313.834 -79.7452C271.97 -105.064 230.419 -116.104 193.728 -109.902ZM566.993 404.677C566.966 459.73 555.575 506.652 532.684 538.9C556.447 508.95 567.956 461.874 566.993 404.677ZM318.515 -80.4396C275.052 -109.979 233.129 -122.282 198.237 -114.059C234.458 -120.281 276.204 -107.94 318.515 -80.4396ZM569.758 400.725C571.244 457.105 560.895 504.665 538.411 536.258C561.877 507.329 572.383 459.614 569.758 400.725ZM203.131 -118.329C237.09 -126.771 279.003 -113.17 322.934 -81.1626C280.361 -110.804 238.646 -124.48 203.131 -118.329Z" fill="url(#paint1_radial_1_1109)"/>
<g filter="url(#filter1_d_1_1109)">
<rect x="-475" y="-483" width="1300" height="866" fill="white"/>
</g>
<rect width="40" height="40" rx="20" fill="#00E0B8"/>
<rect x="23" y="32" width="6" height="24" rx="3" transform="rotate(-180 23 32)" fill="white"/>
<rect x="23" y="32" width="6" height="24" rx="3" transform="rotate(-180 23 32)" fill="white"/>
<rect x="23" y="32" width="6" height="24" rx="3" transform="rotate(-180 23 32)" fill="white"/>
<rect x="32" y="17" width="6" height="24" rx="3" transform="rotate(90 32 17)" fill="white"/>
<rect x="32" y="17" width="6" height="24" rx="3" transform="rotate(90 32 17)" fill="white"/>
<rect x="32" y="17" width="6" height="24" rx="3" transform="rotate(90 32 17)" fill="white"/>
<defs>
<filter id="filter0_f_1_1109" x="-22.6" y="-185.6" width="1131.2" height="1131.2" filterUnits="userSpaceOnUse" color-interpolation-filters="sRGB">
<feFlood flood-opacity="0" result="BackgroundImageFix"/>
<feBlend mode="normal" in="SourceGraphic" in2="BackgroundImageFix" result="shape"/>
<feGaussianBlur stdDeviation="80.8" result="effect1_foregroundBlur_1_1109"/>
</filter>
<filter id="filter1_d_1_1109" x="-515" y="-513" width="1360" height="926" filterUnits="userSpaceOnUse" color-interpolation-filters="sRGB">
<feFlood flood-opacity="0" result="BackgroundImageFix"/>
<feColorMatrix in="SourceAlpha" type="matrix" values="0 0 0 0 0 0 0 0 0 0 0 0 0 0 0 0 0 0 127 0" result="hardAlpha"/>
<feOffset dx="-10"/>
<feGaussianBlur stdDeviation="15"/>
<feComposite in2="hardAlpha" operator="out"/>
<feColorMatrix type="matrix" values="0 0 0 0 0.643333 0 0 0 0 0.554167 0 0 0 0 1 0 0 0 0.1 0"/>
<feBlend mode="normal" in2="BackgroundImageFix" result="effect1_dropShadow_1_1109"/>
<feBlend mode="normal" in="SourceGraphic" in2="effect1_dropShadow_1_1109" result="shape"/>
</filter>
<radialGradient id="paint0_radial_1_1109" cx="0" cy="0" r="1" gradientUnits="userSpaceOnUse" gradientTransform="translate(494.52 303.24) rotate(51.2098) scale(505.18)">
<stop stop-color="#A5FEEE"/>
<stop offset="1" stop-color="#D2D3F3"/>
</radialGradient>
<radialGradient id="paint1_radial_1_1109" cx="0" cy="0" r="1" gradientUnits="userSpaceOnUse" gradientTransform="translate(212.5 254) rotate(-38.4455) scale(563.713 425.767)">
<stop stop-color="#8E6CD7"/>
<stop offset="1" stop-color="#CFC0F0" stop-opacity="0"/>
</radialGradient>
</defs>
</svg>
