<svg width="502" height="607" viewBox="0 0 502 607" fill="none" xmlns="http://www.w3.org/2000/svg">
<path fill-rule="evenodd" clip-rule="evenodd" d="M406.076 561.299C404.811 562.104 403.532 562.89 402.238 563.659C400.887 564.462 399.527 565.242 398.158 565.998C396.897 566.805 395.62 567.593 394.327 568.361C392.974 569.165 391.612 569.943 390.24 570.696C388.982 571.506 387.708 572.295 386.416 573.063C385.062 573.868 383.696 574.645 382.32 575.393C381.067 576.207 379.795 576.998 378.505 577.765C377.149 578.571 375.78 579.346 374.4 580.09C373.151 580.908 371.883 581.701 370.594 582.467C369.236 583.274 367.864 584.047 366.478 584.785C365.235 585.609 363.97 586.404 362.683 587.169C361.323 587.977 359.946 588.747 358.555 589.479C357.318 590.309 356.057 591.107 354.772 591.87C353.409 592.681 352.028 593.448 350.629 594.172C349.4 595.009 348.144 595.81 346.861 596.572C276.955 638.12 152.979 551.792 69.9521 403.753C-13.0746 255.714 -23.7111 102.023 46.1948 60.4747C47.4779 59.7121 48.7792 58.9926 50.0982 58.3158C51.4067 57.431 52.7425 56.5831 54.1058 55.7729C55.3909 55.0091 56.692 54.2837 58.0085 53.5964C59.32 52.7218 60.6561 51.8798 62.0168 51.071C63.3037 50.3062 64.6047 49.5758 65.9193 48.8797C67.2332 48.0136 68.5694 47.1765 69.9278 46.3692C71.2164 45.6033 72.5173 44.8687 73.8304 44.1649C75.1463 43.3062 76.4825 42.4735 77.8388 41.6673C79.1288 40.9006 80.4299 40.1622 81.7417 39.4519C83.0592 38.5995 84.3953 37.7705 85.7498 36.9655C87.0411 36.198 88.3424 35.4563 89.6532 34.7403C90.9721 33.8933 92.308 33.0677 93.6608 32.2636C94.9534 31.4954 96.2548 30.7509 97.5648 30.0298C98.8848 29.1877 100.22 28.3649 101.572 27.5618C102.865 26.7929 104.167 26.0458 105.476 25.3204C106.797 24.4825 108.133 23.6622 109.483 22.8599C214.342 -39.4623 366.653 30.0251 449.68 178.064C532.707 326.104 515.008 496.635 410.149 558.957C408.799 559.76 407.442 560.54 406.076 561.299ZM389.833 465.051C385.566 403.397 362.3 328.34 320.934 254.584C279.568 180.827 228.058 122.556 178.325 87.9255C141.163 62.0482 105.42 49.6315 75.6916 53.2477C45.305 85.4855 27.0483 130.402 21.7517 181.437C14.6602 249.766 30.8454 328.866 72.122 402.463C113.399 476.061 171.85 530.04 232.879 557.883C278.461 578.678 325.376 584.86 367.689 573.889C385.596 549.194 393.022 511.12 389.833 465.051ZM374.137 572.073C373.264 572.339 372.388 572.597 371.51 572.848C412.37 512.097 394.506 380.605 323.104 253.294C251.702 125.982 150.015 44.3109 78.4778 50.3617C79.1276 49.7047 79.7827 49.0533 80.443 48.4075C112.717 41.8822 151.712 53.4027 191.881 79.9334C243.022 113.711 295.401 171.442 336.756 245.18C378.111 318.918 400.489 394.479 403.335 456.961C405.569 506.038 395.764 546.563 374.137 572.073ZM380.141 570.115C379.614 570.298 379.086 570.479 378.558 570.657C426.141 509.401 411.709 373.665 338.926 243.89C266.143 114.115 159.169 33.3815 83.8449 45.1743C84.2586 44.7921 84.6743 44.4121 85.092 44.0343C119.964 34.4236 162.271 44.8935 205.436 71.9392C257.987 104.866 311.234 162.058 352.578 235.776C393.923 309.495 415.413 385.561 416.837 448.874C418.007 500.879 405.662 543.832 380.141 570.115ZM385.743 568.044C385.622 568.092 385.501 568.139 385.38 568.186C439.621 506.283 428.767 366.466 354.748 234.486C280.728 102.507 168.532 22.9225 89.3346 40.3279C89.4347 40.2436 89.5348 40.1593 89.635 40.0752C127.157 27.2278 172.838 36.508 218.991 63.943C272.952 96.0194 327.066 152.673 368.4 226.372C409.734 300.072 430.337 376.643 430.342 440.788C430.345 495.651 415.312 541.016 385.743 568.044ZM253.317 568.923C284.842 580.065 316.636 584.209 346.78 580.482C317.007 584.805 285.157 580.641 253.317 568.923ZM139.791 11.5982C185.163 -4.10259 236.759 1.12652 286.753 23.9347C347.782 51.7772 406.233 105.756 447.51 179.354C488.787 252.951 504.972 332.051 497.88 400.381C492.071 456.355 470.672 504.969 434.778 537.568C504.728 463.65 506.883 317.673 433.858 187.468C360.833 57.2626 236.951 -13.8053 139.791 11.5982ZM22.6834 157.696C28.7448 123.451 41.1672 92.9743 59.6905 68.5926C41.4822 93.6031 29.0722 124.02 22.6834 157.696ZM418.036 196.872C491.336 327.568 491.65 472.513 424.576 543.992C459.415 512.451 479.673 464.348 484.371 408.459C490.043 340.97 472.976 262.376 431.688 188.758C390.4 115.139 332.815 60.6272 273.202 31.9397C223.836 8.18302 173.24 2.1924 129.286 17.4812C222.955 -6.57711 344.736 66.1756 418.036 196.872ZM247.375 569.41C280.523 582.44 313.905 587.451 345.169 583.31C314.374 588.181 280.92 583.15 247.375 569.41ZM56.506 68.6146C37.0107 93.633 24.516 125.973 19.3023 162.748C24.9147 126.682 37.3905 94.4156 56.506 68.6146ZM241.934 569.905C276.372 584.8 310.974 590.718 342.954 586.248C311.551 591.594 276.862 585.656 241.934 569.905ZM118.868 23.3228C161.357 8.45009 210.922 15.2151 259.651 39.9431C317.849 69.4764 374.566 124.522 415.866 198.161C457.166 271.8 475.115 349.888 470.862 416.539C467.3 472.345 448.209 519.916 414.452 550.359C478.61 481.35 475.788 337.461 402.214 206.275C328.639 75.0898 209.002 0.629416 118.868 23.3228ZM16.1651 167.354C20.3783 128.338 32.7282 94.4423 52.9277 69.1185C33.1762 95.3948 20.8541 129.203 16.1651 167.354ZM386.392 215.679C460.24 347.352 465.61 490.157 404.409 556.668C437.056 527.363 454.954 480.347 457.354 424.62C460.189 358.806 441.355 281.224 400.044 207.565C358.733 133.906 302.883 78.3248 246.098 47.9449C198.017 22.2211 149.515 14.6693 108.539 29.1225C195.093 7.81552 312.544 84.0063 386.392 215.679ZM236.905 570.41C272.357 587.144 307.865 594.01 340.222 589.292C308.565 595.044 272.953 588.164 236.905 570.41ZM49.0004 70.0329C28.3326 95.3798 16.3146 130.568 13.2257 171.583C16.8743 131.609 28.8526 96.5206 49.0004 70.0329ZM232.227 570.93C268.458 589.476 304.598 597.324 337.035 592.438C305.435 598.531 269.174 590.677 232.227 570.93ZM98.3006 34.88C137.714 20.8486 185.12 29.199 232.545 55.9449C287.917 87.1725 342.9 143.289 384.222 216.969C425.545 290.648 445.262 367.724 443.847 432.703C442.635 488.356 425.957 534.794 394.446 562.916C452.65 498.932 444.689 357.239 370.57 225.083C296.451 92.9262 181.23 14.9824 98.3006 34.88ZM10.4492 175.494C12.3105 132.681 23.8339 96.4268 44.7601 71.3022C24.4304 97.7769 12.9626 133.921 10.4492 175.494ZM227.849 571.467C264.653 591.796 301.183 600.66 333.439 595.681C302.176 602.056 265.508 593.201 227.849 571.467ZM40.2342 72.8853C19.2387 97.5697 8.35388 134.687 7.80833 179.129C9.10872 136.152 19.9172 99.1533 40.2342 72.8853ZM223.732 572.025C260.93 594.105 297.632 604.014 329.476 599.019C298.8 605.62 261.943 595.742 223.732 572.025ZM5.28139 182.519C4.43437 136.595 14.5525 98.7973 35.4446 74.7504C15.3196 100.642 5.3046 138.317 5.28139 182.519ZM219.847 572.605C257.276 596.404 293.951 607.386 325.174 602.447C295.318 609.225 258.47 598.304 219.847 572.605ZM30.4093 76.8718C9.77888 100.1 0.542226 138.41 2.85043 185.693C1.54351 140.425 10.6427 102.239 30.4093 76.8718Z" fill="url(#paint0_radial_213_1452)"/>
<defs>
<radialGradient id="paint0_radial_213_1452" cx="0" cy="0" r="1" gradientUnits="userSpaceOnUse" gradientTransform="translate(353.5 55.5) rotate(111.995) scale(493.952 408.508)">
<stop offset="0.536458" stop-color="#34E7BC"/>
<stop offset="1" stop-color="#EFCCFC" stop-opacity="0"/>
</radialGradient>
</defs>
</svg>
