<svg width="209" height="756" viewBox="0 0 209 756" fill="none" xmlns="http://www.w3.org/2000/svg">
<path fill-rule="evenodd" clip-rule="evenodd" d="M-242.026 724.464C-243.515 723.561 -244.996 722.63 -246.467 721.673C-248.004 720.672 -249.523 719.648 -251.025 718.599C-252.515 717.701 -253.995 716.773 -255.465 715.817C-257.004 714.815 -258.524 713.787 -260.024 712.732C-261.515 711.84 -262.995 710.917 -264.464 709.961C-266.005 708.958 -267.524 707.926 -269.023 706.864C-270.515 705.979 -271.995 705.06 -273.462 704.105C-275.005 703.101 -276.525 702.064 -278.022 700.994C-279.515 700.117 -280.995 699.203 -282.461 698.249C-284.006 697.243 -285.526 696.201 -287.02 695.122C-288.515 694.255 -289.995 693.345 -291.459 692.393C-293.007 691.385 -294.526 690.337 -296.018 689.247C-297.516 688.391 -298.996 687.488 -300.457 686.537C-302.008 685.527 -303.528 684.471 -305.016 683.37C-306.516 682.527 -307.996 681.63 -309.456 680.681C-388.97 628.934 -376.872 437.516 -282.433 253.138C-187.994 68.7595 -46.9771 -38.7595 32.5374 12.9875C33.9969 13.9373 35.4255 14.9341 36.8233 15.9771C38.414 16.879 39.9851 17.8343 41.5358 18.8435C42.9975 19.7948 44.4316 20.7877 45.838 21.8215C47.4208 22.733 48.9864 23.6922 50.5341 24.6995C51.998 25.6521 53.4367 26.6418 54.8505 27.6679C56.4265 28.5875 57.9874 29.5499 59.5325 30.5555C60.9982 31.5093 62.4411 32.4964 63.8612 33.516C65.4314 34.4424 66.9881 35.4075 68.5309 36.4115C69.9982 37.3664 71.4447 38.3512 72.8705 39.3654C74.4355 40.2976 75.9886 41.2649 77.5292 42.2675C78.9981 43.2234 80.4478 44.2064 81.8785 45.2159C83.439 46.153 84.9889 47.1221 86.5276 48.1235C87.9978 49.0803 89.4504 50.0617 90.8854 51.0673C92.442 52.0085 93.9889 52.9793 95.526 53.9795C96.9974 54.9371 98.4526 55.9172 99.8915 56.9193C101.445 57.8643 102.989 58.8363 104.524 59.8355C223.796 137.456 243.927 349.848 149.489 534.226C55.0497 718.605 -118.197 805.149 -237.469 727.529C-239.004 726.529 -240.523 725.508 -242.026 724.464ZM-159.164 646.492C-102.595 603.36 -44.0051 530.786 3.04657 438.924C50.0982 347.062 76.5625 253.581 81.4158 176.794C85.0424 119.415 76.5962 71.996 56.2285 41.2388C8.09869 27.5745 -45.2645 35.274 -97.112 61.1741C-166.529 95.8511 -233.015 163.081 -279.965 254.744C-326.915 346.408 -345.325 444.924 -337.259 530.026C-331.234 593.589 -310.468 649.53 -275.905 689.682C-242.09 694.186 -201.434 678.721 -159.164 646.492ZM-270.5 695.71C-271.251 694.906 -271.996 694.094 -272.735 693.276C-191.365 700.812 -75.7012 599.093 5.51469 440.53C86.7306 281.968 107.05 118.199 60.5747 42.5353C61.573 42.8477 62.5688 43.1694 63.5623 43.5004C88.1614 75.2725 99.3149 125.745 96.7729 186.868C93.5365 264.688 68.0829 358.798 21.0433 450.636C-25.9963 542.474 -85.5741 614.376 -143.745 656.445C-189.435 689.489 -233.79 703.837 -270.5 695.71ZM-265.212 701.157C-265.687 700.686 -266.16 700.213 -266.631 699.737C-180.953 714.424 -59.2759 613.873 23.5114 452.242C106.299 290.612 122.714 121.557 68.5909 45.2643C69.1919 45.4857 69.7919 45.7107 70.391 45.9391C99.4198 78.6741 113.463 132.171 112.132 196.941C110.511 275.796 86.0674 370.534 39.04 462.348C-7.98735 554.162 -68.5528 625.393 -128.326 666.402C-177.425 700.087 -225.547 713.127 -265.212 701.157ZM-260.045 706.088C-260.159 705.983 -260.272 705.878 -260.386 705.773C-170.303 727.451 -42.6853 628.33 41.5081 463.954C125.702 299.578 138.047 125.44 76.3505 48.3419C76.4881 48.4004 76.6257 48.4591 76.7632 48.518C110.397 82.1805 127.496 138.682 127.492 207.012C127.487 286.903 104.052 382.27 57.0367 474.06C10.0218 565.85 -51.5311 636.411 -112.909 676.361C-165.405 710.53 -217.365 722.089 -260.045 706.088ZM-336.199 559.595C-328.932 601.537 -314.816 639.421 -294.105 670.571C-315.174 640.204 -329.304 602.246 -336.199 559.595ZM132.538 86.4758C173.366 127.077 197.706 187.624 204.314 257.338C212.38 342.44 193.97 440.957 147.02 532.62C100.07 624.284 33.5847 691.513 -35.8325 726.19C-92.698 754.597 -151.387 761.11 -202.994 741.555C-92.4799 773.194 48.4297 684.681 131.492 522.514C214.554 360.347 212.104 178.538 132.538 86.4758ZM-73.8646 47.4244C-37.6486 32.8293 -1.42062 27.6436 32.4448 33.0277C-1.84315 28.385 -38.0069 33.5472 -73.8646 47.4244ZM113.495 510.802C30.1201 673.58 -108.399 764.191 -214.943 734.228C-164.948 753.269 -107.398 745.808 -51.2458 716.22C16.5606 680.491 82.0602 612.597 129.024 520.908C175.987 429.219 195.4 331.333 188.947 247.277C183.604 177.668 160.561 117.758 120.934 78.4746C197.227 167.499 196.87 348.024 113.495 510.802ZM-340.045 553.3C-333.661 598.221 -319.47 638.408 -297.727 670.543C-319.902 639.383 -334.115 599.104 -340.045 553.3ZM30.6127 29.5055C-4.41484 23.4387 -42.4668 29.7042 -80.6223 46.8165C-42.9182 30.5882 -4.94766 24.3477 30.6127 29.5055ZM-343.613 547.567C-338.279 595.081 -324.264 637.187 -301.799 669.913C-324.774 638.374 -338.821 596.159 -343.613 547.567ZM109.419 70.5444C147.815 108.461 169.531 167.708 173.582 237.214C178.42 320.225 158.004 417.481 111.027 509.196C64.0504 600.911 -0.462952 669.469 -66.6602 706.252C-122.087 737.05 -178.464 745.476 -226.794 726.952C-124.271 755.216 11.8111 662.478 95.4983 499.09C179.186 335.703 182.396 156.493 109.419 70.5444ZM-86.8132 46.2009C-47.0829 26.5826 -7.62479 19.1875 28.0954 25.8462C-8.28151 20.2781 -47.6402 27.6496 -86.8132 46.2009ZM77.5016 487.378C-6.49649 651.373 -140.092 746.266 -238.542 719.729C-191.934 737.73 -136.766 728.324 -82.0755 696.286C-17.4861 658.449 46.0407 589.224 93.0302 497.484C140.02 405.744 161.442 309.118 158.217 227.149C155.487 157.742 135.129 99.1852 97.9948 62.6873C167.609 145.524 161.5 323.384 77.5016 487.378ZM-346.956 542.298C-342.806 592.084 -329.182 635.786 -306.265 668.775C-329.773 637.206 -343.443 593.38 -346.956 542.298ZM24.9868 22.0548C-11.0218 14.8906 -51.5286 23.4596 -92.5324 45.5713C-52.2064 24.7293 -11.8177 16.1784 24.9868 22.0548ZM-350.115 537.427C-347.256 589.206 -334.212 634.221 -311.088 667.195C-334.89 635.903 -347.997 590.749 -350.115 537.427ZM86.6628 54.9047C122.505 89.9296 141.475 147.767 142.854 217.081C144.464 298.01 122.036 394.007 75.0335 485.772C28.0311 577.537 -34.5089 647.429 -97.4917 686.322C-151.435 719.634 -205.357 730.034 -250.188 712.558C-155.86 737.34 -24.8018 640.263 59.5049 475.666C143.812 311.069 152.866 134.594 86.6628 54.9047ZM-97.8537 44.9237C-55.8273 20.3291 -14.5822 10.5474 21.3607 18.137C-15.5349 12.0506 -56.6425 21.8252 -97.8537 44.9237ZM-353.118 532.901C-351.639 586.426 -339.345 632.507 -316.236 665.223C-340.117 634.479 -352.498 588.25 -353.118 532.901ZM17.2719 14.0976C-18.2892 6.15698 -59.9975 17.1854 -102.834 44.2548C-60.9698 18.9357 -19.4186 7.89647 17.2719 14.0976ZM-355.993 528.677C-355.966 583.73 -344.575 630.652 -321.684 662.9C-345.447 632.95 -356.956 585.874 -355.993 528.677ZM-107.515 43.5604C-64.0523 14.0215 -22.1291 1.71805 12.7632 9.94081C-23.4581 3.71861 -65.2044 16.0596 -107.515 43.5604ZM-358.758 524.725C-360.244 581.105 -349.895 628.665 -327.411 660.258C-350.877 631.329 -361.383 583.614 -358.758 524.725ZM7.86949 5.67089C-26.0903 -2.7713 -68.0026 10.83 -111.934 42.8374C-69.3611 13.1964 -27.6456 -0.480284 7.86949 5.67089Z" fill="url(#paint0_radial_299_3000)"/>
<defs>
<radialGradient id="paint0_radial_299_3000" cx="0" cy="0" r="1" gradientUnits="userSpaceOnUse" gradientTransform="translate(-1.5 378) rotate(-141.554) scale(563.713 425.767)">
<stop stop-color="#8E6CD7"/>
<stop offset="1" stop-color="#CFC0F0" stop-opacity="0"/>
</radialGradient>
</defs>
</svg>
