<svg width="40" height="40" viewBox="0 0 40 40" fill="none" xmlns="http://www.w3.org/2000/svg">
<rect width="40" height="40" fill="#E5E5E5"/>
<rect width="140" height="866" transform="translate(-983 -427)" fill="#EEEEFF"/>
<g filter="url(#filter0_f_1_1109)">
<circle cx="175" cy="436" r="404" fill="url(#paint0_radial_1_1109)" fill-opacity="0.6"/>
</g>
<path fill-rule="evenodd" clip-rule="evenodd" d="M85.0258 656.464C86.5151 655.561 87.9957 654.63 89.4672 653.673C91.0042 652.672 92.5234 651.648 94.0249 650.599C95.515 649.701 96.9953 648.773 98.4655 647.817C100.004 646.815 101.524 645.787 103.024 644.732C104.515 643.84 105.995 642.917 107.464 641.961C109.005 640.958 110.524 639.926 112.023 638.864C113.515 637.979 114.995 637.06 116.462 636.105C118.005 635.101 119.525 634.064 121.022 632.994C122.515 632.117 123.995 631.202 125.461 630.249C127.006 629.243 128.526 628.201 130.02 627.122C131.515 626.255 132.995 625.345 134.459 624.393C136.007 623.385 137.526 622.337 139.018 621.247C140.516 620.391 141.996 619.488 143.457 618.537C145.008 617.527 146.528 616.472 148.016 615.37C149.516 614.527 150.996 613.63 152.456 612.681C231.97 560.934 219.872 369.516 125.433 185.138C30.9942 0.759476 -110.023 -106.76 -189.537 -55.0125C-190.997 -54.0627 -192.425 -53.0659 -193.823 -52.0229C-195.414 -51.121 -196.985 -50.1657 -198.536 -49.1565C-199.998 -48.2052 -201.432 -47.2123 -202.838 -46.1785C-204.421 -45.267 -205.986 -44.3078 -207.534 -43.3005C-208.998 -42.3479 -210.437 -41.3582 -211.85 -40.3321C-213.427 -39.4125 -214.987 -38.4501 -216.533 -37.4445C-217.998 -36.4907 -219.441 -35.5036 -220.861 -34.484C-222.431 -33.5576 -223.988 -32.5925 -225.531 -31.5885C-226.998 -30.6336 -228.445 -29.6488 -229.87 -28.6346C-231.436 -27.7024 -232.989 -26.7351 -234.529 -25.7325C-235.998 -24.7766 -237.448 -23.7936 -238.878 -22.7841C-240.439 -21.847 -241.989 -20.8779 -243.528 -19.8765C-244.998 -18.9197 -246.45 -17.9383 -247.885 -16.9327C-249.442 -15.9915 -250.989 -15.0207 -252.526 -14.0205C-253.997 -13.0629 -255.453 -12.0828 -256.891 -11.0807C-258.445 -10.1357 -259.989 -9.1637 -261.524 -8.16446C-380.796 69.456 -400.927 281.848 -306.489 466.226C-212.05 650.605 -38.803 737.149 80.4688 659.529C82.0042 658.529 83.5232 657.508 85.0258 656.464ZM2.16385 578.492C-54.4051 535.36 -112.995 462.786 -160.047 370.924C-207.098 279.062 -233.563 185.581 -238.416 108.794C-242.042 51.4154 -233.596 3.99598 -213.229 -26.7612C-165.099 -40.4255 -111.736 -32.726 -59.888 -6.82591C9.52919 27.8511 76.0147 95.0807 122.965 186.744C169.915 278.408 188.325 376.924 180.259 462.026C174.234 525.589 153.468 581.53 118.905 621.682C85.09 626.186 44.4345 610.721 2.16385 578.492ZM113.5 627.71C114.251 626.906 114.996 626.094 115.735 625.276C34.3651 632.812 -81.2988 531.093 -162.515 372.53C-243.731 213.968 -264.05 50.1992 -217.575 -25.4647C-218.573 -25.1523 -219.569 -24.8306 -220.562 -24.4996C-245.161 7.27254 -256.315 57.7449 -253.773 118.868C-250.537 196.688 -225.083 290.798 -178.043 382.636C-131.004 474.474 -71.4259 546.376 -13.2551 588.445C32.4352 621.489 76.79 635.837 113.5 627.71ZM108.212 633.157C108.687 632.686 109.16 632.213 109.631 631.737C23.9531 646.424 -97.7241 545.873 -180.511 384.242C-263.299 222.612 -279.714 53.557 -225.591 -22.7357C-226.192 -22.5143 -226.792 -22.2893 -227.391 -22.0609C-256.42 10.6741 -270.463 64.1706 -269.132 128.941C-267.511 207.796 -243.067 302.534 -196.04 394.348C-149.013 486.162 -88.4472 557.393 -28.6735 598.402C20.4246 632.087 68.5473 645.127 108.212 633.157ZM103.045 638.088C103.159 637.983 103.272 637.878 103.386 637.773C13.3031 659.451 -114.315 560.33 -198.508 395.954C-282.702 231.578 -295.047 57.4402 -233.351 -19.6581C-233.488 -19.5996 -233.626 -19.5409 -233.763 -19.482C-267.397 14.1805 -284.496 70.6817 -284.492 139.012C-284.487 218.903 -261.052 314.27 -214.037 406.06C-167.022 497.85 -105.469 568.411 -44.0913 608.361C8.40526 642.53 60.3648 654.089 103.045 638.088ZM179.199 491.595C171.932 533.537 157.816 571.421 137.105 602.571C158.174 572.204 172.304 534.246 179.199 491.595ZM-289.538 18.4758C-330.366 59.0767 -354.706 119.624 -361.314 189.338C-369.38 274.44 -350.97 372.957 -304.02 464.62C-257.07 556.284 -190.585 623.513 -121.168 658.19C-64.302 686.597 -5.61349 693.11 45.9941 673.555C-64.5202 705.194 -205.43 616.681 -288.492 454.514C-371.554 292.347 -369.104 110.538 -289.538 18.4758ZM-83.1354 -20.5756C-119.351 -35.1707 -155.579 -40.3564 -189.445 -34.9723C-155.157 -39.615 -118.993 -34.4528 -83.1354 -20.5756ZM-270.495 442.802C-187.12 605.58 -48.6008 696.191 57.9433 666.228C7.94837 685.269 -49.6021 677.808 -105.754 648.22C-173.561 612.491 -239.06 544.597 -286.024 452.908C-332.987 361.219 -352.4 263.333 -345.947 179.277C-340.604 109.668 -317.561 49.7578 -277.934 10.4746C-354.227 99.4989 -353.87 280.024 -270.495 442.802ZM183.045 485.3C176.661 530.221 162.47 570.408 140.727 602.543C162.902 571.383 177.115 531.104 183.045 485.3ZM-187.613 -38.4945C-152.585 -44.5613 -114.533 -38.2958 -76.3777 -21.1835C-114.082 -37.4118 -152.052 -43.6523 -187.613 -38.4945ZM186.613 479.567C181.279 527.081 167.264 569.187 144.799 601.913C167.774 570.374 181.821 528.159 186.613 479.567ZM-266.419 2.54443C-304.815 40.4608 -326.531 99.7082 -330.582 169.214C-335.42 252.225 -315.004 349.481 -268.027 441.196C-221.05 532.911 -156.537 601.469 -90.3398 638.252C-34.9131 669.05 21.4642 677.476 69.7936 658.952C-32.7293 687.216 -168.811 594.478 -252.498 431.09C-336.186 267.703 -339.396 88.4933 -266.419 2.54443ZM-70.1868 -21.7991C-109.917 -41.4174 -149.375 -48.8125 -185.095 -42.1538C-148.718 -47.7219 -109.36 -40.3504 -70.1868 -21.7991ZM-234.502 419.378C-150.504 583.373 -16.9082 678.266 81.5425 651.729C34.9338 669.73 -20.2343 660.324 -74.9245 628.286C-139.514 590.449 -203.041 521.224 -250.03 429.484C-297.02 337.744 -318.442 241.118 -315.217 159.149C-312.487 89.742 -292.129 31.1852 -254.995 -5.31273C-324.609 77.5242 -318.5 255.384 -234.502 419.378ZM189.956 474.298C185.806 524.084 172.182 567.786 149.265 600.775C172.773 569.206 186.443 525.38 189.956 474.298ZM-181.987 -45.9452C-145.978 -53.1094 -105.471 -44.5404 -64.4676 -22.4287C-104.794 -43.2707 -145.182 -51.8216 -181.987 -45.9452ZM193.115 469.427C190.256 521.206 177.212 566.221 154.088 599.195C177.89 567.903 190.997 522.749 193.115 469.427ZM-243.663 -13.0953C-279.505 21.9296 -298.475 79.7671 -299.854 149.081C-301.464 230.01 -279.036 326.007 -232.033 417.772C-185.031 509.537 -122.491 579.429 -59.5083 618.322C-5.56456 651.634 48.357 662.034 93.1877 644.558C-1.13989 669.34 -132.198 572.263 -216.505 407.666C-300.812 243.069 -309.866 66.5944 -243.663 -13.0953ZM-59.1463 -23.0763C-101.173 -47.6709 -142.418 -57.4526 -178.361 -49.863C-141.465 -55.9494 -100.357 -46.1748 -59.1463 -23.0763ZM196.118 464.901C194.639 518.426 182.345 564.507 159.236 597.223C183.117 566.479 195.498 520.251 196.118 464.901ZM-174.272 -53.9024C-138.711 -61.843 -97.0025 -50.8146 -54.1664 -23.7452C-96.0302 -49.0643 -137.581 -60.1035 -174.272 -53.9024ZM198.993 460.677C198.966 515.73 187.575 562.652 164.684 594.9C188.447 564.95 199.956 517.874 198.993 460.677ZM-49.4849 -24.4396C-92.9477 -53.9785 -134.871 -66.282 -169.763 -58.0592C-133.542 -64.2814 -91.7956 -51.9404 -49.4849 -24.4396ZM201.758 456.725C203.244 513.105 192.895 560.665 170.411 592.258C193.877 563.329 204.383 515.614 201.758 456.725ZM-164.869 -62.3291C-130.91 -70.7713 -88.9974 -57.17 -45.0658 -25.1626C-87.639 -54.8036 -129.354 -68.4803 -164.869 -62.3291Z" fill="url(#paint1_radial_1_1109)"/>
<path fill-rule="evenodd" clip-rule="evenodd" d="M326.076 280.299C324.811 281.104 323.532 281.89 322.238 282.659C320.887 283.462 319.527 284.242 318.158 284.998C316.897 285.805 315.62 286.593 314.327 287.361C312.974 288.165 311.612 288.943 310.24 289.696C308.982 290.506 307.708 291.295 306.416 292.063C305.062 292.868 303.696 293.645 302.32 294.393C301.067 295.207 299.795 295.998 298.505 296.765C297.149 297.571 295.78 298.346 294.4 299.09C293.151 299.908 291.883 300.701 290.594 301.467C289.236 302.274 287.864 303.047 286.478 303.785C285.235 304.609 283.97 305.404 282.683 306.169C281.323 306.977 279.946 307.747 278.555 308.479C277.318 309.309 276.057 310.107 274.772 310.87C273.409 311.681 272.028 312.448 270.629 313.172C269.4 314.009 268.144 314.81 266.861 315.572C196.955 357.12 72.9789 270.792 -10.0479 122.753C-93.0746 -25.2861 -103.711 -178.977 -33.8052 -220.525C-32.5221 -221.288 -31.2208 -222.007 -29.9018 -222.684C-28.5933 -223.569 -27.2575 -224.417 -25.8942 -225.227C-24.6091 -225.991 -23.308 -226.716 -21.9915 -227.404C-20.68 -228.278 -19.3439 -229.12 -17.9832 -229.929C-16.6963 -230.694 -15.3953 -231.424 -14.0807 -232.12C-12.7668 -232.986 -11.4306 -233.823 -10.0722 -234.631C-8.78364 -235.397 -7.48266 -236.131 -6.16965 -236.835C-4.85371 -237.694 -3.51755 -238.527 -2.16119 -239.333C-0.871193 -240.099 0.429878 -240.838 1.74167 -241.548C3.05925 -242.401 4.39529 -243.229 5.7498 -244.035C7.04114 -244.802 8.34236 -245.544 9.65318 -246.26C10.9721 -247.107 12.308 -247.932 13.6608 -248.736C14.9534 -249.505 16.2548 -250.249 17.5648 -250.97C18.8848 -251.812 20.2205 -252.635 21.5718 -253.438C22.8654 -254.207 24.1671 -254.954 25.4765 -255.68C26.7975 -256.518 28.1329 -257.338 29.4828 -258.14C134.342 -320.462 286.653 -250.975 369.68 -102.936C452.707 45.1035 435.008 215.635 330.149 277.957C328.799 278.76 327.442 279.54 326.076 280.299ZM309.833 184.051C305.566 122.397 282.3 47.3401 240.934 -26.4165C199.568 -100.173 148.058 -158.444 98.3253 -193.075C61.1627 -218.952 25.42 -231.369 -4.30843 -227.752C-34.695 -195.515 -52.9517 -150.598 -58.2483 -99.5634C-65.3398 -31.234 -49.1546 47.8659 -7.87801 121.463C33.3986 195.061 91.85 249.04 152.879 276.883C198.461 297.678 245.376 303.86 287.689 292.889C305.596 268.194 313.022 230.12 309.833 184.051ZM294.137 291.073C293.264 291.339 292.388 291.597 291.51 291.848C332.37 231.097 314.506 99.6053 243.104 -27.7061C171.702 -155.018 70.0152 -236.689 -1.52218 -230.638C-0.872383 -231.295 -0.217316 -231.947 0.443024 -232.592C32.7171 -239.118 71.712 -227.597 111.881 -201.067C163.022 -167.289 215.401 -109.558 256.756 -35.8202C298.111 37.9176 320.489 113.479 323.335 175.961C325.569 225.038 315.764 265.563 294.137 291.073ZM300.141 289.115C299.614 289.298 299.086 289.479 298.558 289.657C346.141 228.401 331.709 92.6649 258.926 -37.1098C186.143 -166.885 79.169 -247.619 3.84486 -235.826C4.25864 -236.208 4.67435 -236.588 5.09204 -236.966C39.9636 -246.576 82.2713 -236.106 125.436 -209.061C177.987 -176.134 231.234 -118.942 272.578 -45.2238C313.923 28.4948 335.413 104.561 336.837 167.874C338.007 219.879 325.662 262.832 300.141 289.115ZM305.743 287.044C305.622 287.092 305.501 287.139 305.38 287.186C359.621 225.283 348.767 85.4655 274.748 -46.5135C200.728 -178.493 88.5321 -258.078 9.33465 -240.672C9.43469 -240.756 9.5348 -240.841 9.63505 -240.925C47.1572 -253.772 92.8382 -244.492 138.991 -217.057C192.952 -184.981 247.066 -128.327 288.4 -54.6276C329.734 19.0716 350.337 95.6427 350.342 159.788C350.345 214.651 335.312 260.016 305.743 287.044ZM173.317 287.923C204.842 299.065 236.636 303.209 266.78 299.482C237.007 303.805 205.157 299.641 173.317 287.923ZM59.7914 -269.402C105.163 -285.103 156.759 -279.873 206.753 -257.065C267.782 -229.223 326.233 -175.244 367.51 -101.646C408.787 -28.0486 424.972 51.0514 417.88 119.381C412.071 175.355 390.672 223.969 354.778 256.568C424.728 182.65 426.883 36.6734 353.858 -93.532C280.833 -223.737 156.951 -294.805 59.7914 -269.402ZM-57.3166 -123.304C-51.2552 -157.549 -38.8328 -188.026 -20.3095 -212.407C-38.5178 -187.397 -50.9278 -156.98 -57.3166 -123.304ZM338.036 -84.1283C411.336 46.5677 411.65 191.513 344.576 262.992C379.415 231.451 399.673 183.348 404.371 127.459C410.043 59.9696 392.976 -18.624 351.688 -92.2423C310.4 -165.861 252.815 -220.373 193.202 -249.06C143.836 -272.817 93.2396 -278.808 49.2861 -263.519C142.955 -287.577 264.736 -214.824 338.036 -84.1283ZM167.375 288.41C200.523 301.44 233.905 306.451 265.169 302.31C234.374 307.181 200.92 302.15 167.375 288.41ZM-23.494 -212.385C-42.9893 -187.367 -55.484 -155.027 -60.6977 -118.252C-55.0853 -154.318 -42.6095 -186.584 -23.494 -212.385ZM161.934 288.905C196.372 303.8 230.974 309.718 262.954 305.248C231.551 310.594 196.862 304.656 161.934 288.905ZM38.8678 -257.677C81.357 -272.55 130.922 -265.785 179.651 -241.057C237.849 -211.524 294.566 -156.478 335.866 -82.8387C377.166 -9.19971 395.115 68.8879 390.862 135.539C387.3 191.345 368.209 238.916 334.452 269.359C398.61 200.35 395.788 56.4609 322.214 -74.7246C248.639 -205.91 129.002 -280.371 38.8678 -257.677ZM-63.8349 -113.646C-59.6217 -152.662 -47.2718 -186.558 -27.0723 -211.881C-46.8238 -185.605 -59.1459 -151.797 -63.8349 -113.646ZM306.392 -65.3209C380.24 66.3518 385.61 209.157 324.409 275.668C357.056 246.363 374.954 199.347 377.354 143.62C380.189 77.8061 361.355 0.224365 320.044 -73.435C278.733 -147.094 222.883 -202.675 166.098 -233.055C118.017 -258.779 69.5152 -266.331 28.5388 -251.877C115.093 -273.184 232.544 -196.994 306.392 -65.3209ZM156.905 289.41C192.357 306.144 227.865 313.01 260.222 308.292C228.565 314.044 192.953 307.164 156.905 289.41ZM-30.9996 -210.967C-51.6674 -185.62 -63.6854 -150.432 -66.7743 -109.417C-63.1257 -149.391 -51.1474 -184.479 -30.9996 -210.967ZM152.227 289.93C188.458 308.476 224.598 316.324 257.035 311.438C225.435 317.531 189.174 309.677 152.227 289.93ZM18.3006 -246.12C57.7139 -260.151 105.12 -251.801 152.545 -225.055C207.917 -193.828 262.9 -137.711 304.222 -64.0313C345.545 9.6481 365.262 86.7244 363.847 151.703C362.635 207.356 345.957 253.794 314.446 281.916C372.65 217.932 364.689 76.2392 290.57 -55.9172C216.451 -188.074 101.23 -266.018 18.3006 -246.12ZM-69.5508 -105.506C-67.6895 -148.319 -56.1661 -184.573 -35.2399 -209.698C-55.5696 -183.223 -67.0374 -147.079 -69.5508 -105.506ZM147.849 290.467C184.653 310.796 221.183 319.66 253.439 314.681C222.176 321.056 185.508 312.201 147.849 290.467ZM-39.7658 -208.115C-60.7613 -183.43 -71.6461 -146.313 -72.1917 -101.871C-70.8913 -144.848 -60.0828 -181.847 -39.7658 -208.115ZM143.732 291.025C180.93 313.105 217.632 323.014 249.476 318.019C218.8 324.62 181.943 314.742 143.732 291.025ZM-74.7186 -98.4807C-75.5656 -144.405 -65.4475 -182.203 -44.5554 -206.25C-64.6804 -180.358 -74.6954 -142.683 -74.7186 -98.4807ZM139.847 291.605C177.276 315.404 213.951 326.386 245.174 321.447C215.318 328.225 178.47 317.304 139.847 291.605ZM-49.5907 -204.128C-70.2211 -180.9 -79.4578 -142.59 -77.1496 -95.3073C-78.4565 -140.575 -69.3573 -178.761 -49.5907 -204.128Z" fill="url(#paint2_radial_1_1109)"/>
<g filter="url(#filter1_d_1_1109)">
<rect x="-843" y="-427" width="1300" height="866" fill="white"/>
</g>
<circle cx="20" cy="20" r="20" fill="#00E0B8"/>
<path d="M24.7125 11.8175H27.7226C28.2698 11.8175 28.6955 12.259 28.6955 12.8265V13.5518C28.6955 14.0248 28.3611 14.4662 27.9354 14.5608V29.5387C27.9354 30.5162 27.1449 31.3045 26.1719 31.3045H13.8278C12.8548 31.3045 12.0947 30.5162 12.0947 29.5387V14.5608C11.6691 14.4662 11.3042 14.0248 11.3042 13.5518V12.8265C11.3042 12.259 11.7603 11.8175 12.3075 11.8175H15.2872V10.4931C15.2872 9.51564 16.0473 8.6958 17.0202 8.6958H22.9795C23.9524 8.6958 24.7125 9.51564 24.7125 10.4931V11.8175ZM22.9795 10.2724H17.0202C16.8682 10.2724 16.777 10.367 16.777 10.4931V11.8175H23.2227V10.4931C23.2227 10.367 23.1315 10.2724 22.9795 10.2724ZM14.3142 29.2864H25.7159C25.8375 29.2864 25.9287 29.1288 25.9287 29.0026V14.5924H14.071V29.0026C14.071 29.1288 14.1622 29.2864 14.3142 29.2864ZM16.6554 28.1197H16.4729C15.9257 28.1197 15.4696 27.6467 15.4696 27.0792V16.7681C15.4696 16.232 15.9257 15.7906 16.4729 15.7906H16.6554C17.1722 15.7906 17.6283 16.232 17.6283 16.7681V27.0792C17.6283 27.6467 17.1722 28.1197 16.6554 28.1197ZM20.0911 28.1197H19.939C19.3918 28.1197 18.9357 27.6467 18.9357 27.0792V16.7681C18.9357 16.232 19.3918 15.7906 19.939 15.7906H20.0911C20.6383 15.7906 21.0944 16.232 21.0944 16.7681V27.0792C21.0944 27.6467 20.6383 28.1197 20.0911 28.1197ZM23.5268 28.1197H23.3747C22.8275 28.1197 22.4018 27.6467 22.4018 27.0792V16.7681C22.4018 16.232 22.8275 15.7906 23.3747 15.7906H23.5268C24.074 15.7906 24.5301 16.232 24.5301 16.7681V27.0792C24.5301 27.6467 24.074 28.1197 23.5268 28.1197Z" fill="white"/>
<defs>
<filter id="filter0_f_1_1109" x="-390.6" y="-129.6" width="1131.2" height="1131.2" filterUnits="userSpaceOnUse" color-interpolation-filters="sRGB">
<feFlood flood-opacity="0" result="BackgroundImageFix"/>
<feBlend mode="normal" in="SourceGraphic" in2="BackgroundImageFix" result="shape"/>
<feGaussianBlur stdDeviation="80.8" result="effect1_foregroundBlur_1_1109"/>
</filter>
<filter id="filter1_d_1_1109" x="-883" y="-457" width="1360" height="926" filterUnits="userSpaceOnUse" color-interpolation-filters="sRGB">
<feFlood flood-opacity="0" result="BackgroundImageFix"/>
<feColorMatrix in="SourceAlpha" type="matrix" values="0 0 0 0 0 0 0 0 0 0 0 0 0 0 0 0 0 0 127 0" result="hardAlpha"/>
<feOffset dx="-10"/>
<feGaussianBlur stdDeviation="15"/>
<feComposite in2="hardAlpha" operator="out"/>
<feColorMatrix type="matrix" values="0 0 0 0 0.643333 0 0 0 0 0.554167 0 0 0 0 1 0 0 0 0.1 0"/>
<feBlend mode="normal" in2="BackgroundImageFix" result="effect1_dropShadow_1_1109"/>
<feBlend mode="normal" in="SourceGraphic" in2="effect1_dropShadow_1_1109" result="shape"/>
</filter>
<radialGradient id="paint0_radial_1_1109" cx="0" cy="0" r="1" gradientUnits="userSpaceOnUse" gradientTransform="translate(126.52 359.24) rotate(51.2098) scale(505.18)">
<stop stop-color="#A5FEEE"/>
<stop offset="1" stop-color="#D2D3F3"/>
</radialGradient>
<radialGradient id="paint1_radial_1_1109" cx="0" cy="0" r="1" gradientUnits="userSpaceOnUse" gradientTransform="translate(-155.5 310) rotate(-38.4455) scale(563.713 425.767)">
<stop stop-color="#8E6CD7"/>
<stop offset="1" stop-color="#CFC0F0" stop-opacity="0"/>
</radialGradient>
<radialGradient id="paint2_radial_1_1109" cx="0" cy="0" r="1" gradientUnits="userSpaceOnUse" gradientTransform="translate(273.5 -225.5) rotate(111.995) scale(493.952 408.508)">
<stop offset="0.536458" stop-color="#34E7BC"/>
<stop offset="1" stop-color="#EFCCFC" stop-opacity="0"/>
</radialGradient>
</defs>
</svg>
